<svg xmlns="http://www.w3.org/2000/svg" viewBox="0 0 36.62 26.31"><defs><style>.cls-1{fill:#bce269;}</style></defs><g id="Capa_2" data-name="Capa 2"><g id="Capa_1-2" data-name="Capa 1"><path class="cls-1" d="M18.14,2.66a37.64,37.64,0,0,0-3.9,2,21.89,21.89,0,0,0-3.5,2.5,19.1,19.1,0,0,0-2.7,3,13.48,13.48,0,0,0-1.89,3.86H8.24a7.93,7.93,0,0,1,4.85,1.24,4.11,4.11,0,0,1,1.61,3.45A7.16,7.16,0,0,1,12.3,24a7.89,7.89,0,0,1-5.7,2.34c-2.32,0-4-.63-5-1.89A7.43,7.43,0,0,1,0,19.53c0-3.92,1.66-7.69,5-11.28A32.59,32.59,0,0,1,17.09,0Zm18.48,0a36.66,36.66,0,0,0-3.9,2,21.89,21.89,0,0,0-3.5,2.5,19.67,19.67,0,0,0-2.71,3,13.72,13.72,0,0,0-1.88,3.86h2.09a7.93,7.93,0,0,1,4.85,1.24,4.11,4.11,0,0,1,1.61,3.45A7.12,7.12,0,0,1,30.78,24a7.89,7.89,0,0,1-5.7,2.34q-3.49,0-5-1.89a7.43,7.43,0,0,1-1.56-4.89c0-3.92,1.65-7.69,5-11.28A32.59,32.59,0,0,1,35.57,0Z"/></g></g></svg>