<svg xmlns="http://www.w3.org/2000/svg" viewBox="0 0 36.62 26.32"><defs><style>.cls-1{fill:#bce269;}</style></defs><g id="Capa_2" data-name="Capa 2"><g id="Capa_1-2" data-name="Capa 1"><path class="cls-1" d="M18.48,23.65a34.89,34.89,0,0,0,3.9-2,20.87,20.87,0,0,0,3.5-2.49,18.8,18.8,0,0,0,2.71-3,13,13,0,0,0,1.88-3.86H28.38A7.86,7.86,0,0,1,23.53,11a4.09,4.09,0,0,1-1.6-3.44,7.14,7.14,0,0,1,2.4-5.2A7.88,7.88,0,0,1,30,0q3.5,0,5.05,1.89a7.53,7.53,0,0,1,1.55,4.9q0,5.88-5,11.28a32.59,32.59,0,0,1-12.12,8.25ZM0,23.65a34.89,34.89,0,0,0,3.9-2,20.87,20.87,0,0,0,3.5-2.49,19.29,19.29,0,0,0,2.71-3A13,13,0,0,0,12,12.22H9.9A7.86,7.86,0,0,1,5.05,11a4.09,4.09,0,0,1-1.6-3.44,7.14,7.14,0,0,1,2.4-5.2A7.88,7.88,0,0,1,11.54,0Q15,0,16.59,1.89a7.53,7.53,0,0,1,1.55,4.9q0,5.88-5,11.28A32.71,32.71,0,0,1,1.05,26.32Z"/></g></g></svg>