<svg xmlns="http://www.w3.org/2000/svg" viewBox="0 0 37.57 37.57"><defs><style>.cls-1{fill:#fff;}</style></defs><g id="Capa_2" data-name="Capa 2"><g id="Capa_1-2" data-name="Capa 1"><path class="cls-1" d="M27.2,0H10.37A10.38,10.38,0,0,0,0,10.37V27.2A10.38,10.38,0,0,0,10.37,37.57H27.2A10.38,10.38,0,0,0,37.57,27.2V10.37A10.38,10.38,0,0,0,27.2,0Zm7,27.2a7,7,0,0,1-7,7H10.37a7,7,0,0,1-7-7V10.37a7.05,7.05,0,0,1,7-7H27.2a7.05,7.05,0,0,1,7,7Z"/><path class="cls-1" d="M18.79,9.11a9.68,9.68,0,1,0,9.68,9.68A9.7,9.7,0,0,0,18.79,9.11Zm0,16a6.35,6.35,0,1,1,6.34-6.34A6.35,6.35,0,0,1,18.79,25.13Z"/><path class="cls-1" d="M28.87,6.28A2.46,2.46,0,1,0,30.6,7,2.42,2.42,0,0,0,28.87,6.28Z"/></g></g></svg>