<svg xmlns="http://www.w3.org/2000/svg" viewBox="0 0 19.14 35.4"><defs><style>.cls-1{fill:#fff;}</style></defs><g id="Capa_2" data-name="Capa 2"><g id="Capa_1-2" data-name="Capa 1"><path class="cls-1" d="M18.42,0H13.83C8.67,0,5.34,3.42,5.34,8.71v4H.72a.72.72,0,0,0-.72.72v5.82A.72.72,0,0,0,.72,20H5.34V34.68a.72.72,0,0,0,.72.72h6a.72.72,0,0,0,.72-.72V20h5.4a.72.72,0,0,0,.72-.72V13.45a.73.73,0,0,0-.73-.72H12.8V9.32c0-1.63.39-2.46,2.53-2.46h3.09a.73.73,0,0,0,.72-.73V.73A.72.72,0,0,0,18.42,0"/></g></g></svg>