<svg xmlns="http://www.w3.org/2000/svg" viewBox="0 0 31.86 31.86"><defs><style>.cls-1{fill:#594a42;}</style></defs><g id="Capa_2" data-name="Capa 2"><g id="Capa_1-2" data-name="Capa 1"><path class="cls-1" d="M27.28,26A15.13,15.13,0,0,0,27,5.55h0A15.24,15.24,0,0,0,16.46.76H15.41A15.2,15.2,0,0,0,4.88,5.54h0A15.13,15.13,0,0,0,4.58,26v0l0,0A15.13,15.13,0,0,0,15.41,31.1h1.05A15.16,15.16,0,0,0,27.25,26l0,0v0M1.81,16.46H8.09a19.43,19.43,0,0,0,1.27,6.39A19.55,19.55,0,0,0,5.11,25a14.05,14.05,0,0,1-3.3-8.55M5.4,6.52a18.85,18.85,0,0,0,4.13,2,19.61,19.61,0,0,0-1.44,6.86H1.81A14.09,14.09,0,0,1,5.4,6.52m24.65,8.89H23.77a19.61,19.61,0,0,0-1.44-6.86,18.63,18.63,0,0,0,4.13-2,14,14,0,0,1,3.59,8.89M15.41,8.58A18.34,18.34,0,0,1,11,7.91a18.27,18.27,0,0,1,4.44-5.78Zm0,1.05v5.78H9.14a18,18,0,0,1,1.4-6.53,19.33,19.33,0,0,0,4.87.75m1,0a19.48,19.48,0,0,0,4.88-.75,18.21,18.21,0,0,1,1.39,6.53H16.45Zm0-1.05V2.13a18.27,18.27,0,0,1,4.44,5.78,18.34,18.34,0,0,1-4.44.67m5.45-1a19.34,19.34,0,0,0-4.13-5.67,14.09,14.09,0,0,1,8,3.83A17.69,17.69,0,0,1,21.9,7.59M10,7.59A17.91,17.91,0,0,1,6.14,5.75a14.12,14.12,0,0,1,8-3.83A19.34,19.34,0,0,0,10,7.59m-.82,8.87h6.27v5.25a19.51,19.51,0,0,0-5.06.8,18.41,18.41,0,0,1-1.21-6.05m6.27,6.3v7a18.26,18.26,0,0,1-4.65-6.24,18.13,18.13,0,0,1,4.65-.73m1,7v-7a18.13,18.13,0,0,1,4.65.73,18.26,18.26,0,0,1-4.65,6.24m0-8V16.46h6.27a18.26,18.26,0,0,1-1.21,6.06,19,19,0,0,0-5.06-.81m7.32-5.25h6.28A14.05,14.05,0,0,1,26.75,25a19.48,19.48,0,0,0-4.24-2.16,19.42,19.42,0,0,0,1.26-6.39M5.82,25.8a17.75,17.75,0,0,1,3.94-2,19.34,19.34,0,0,0,4.33,6.12A14.16,14.16,0,0,1,5.82,25.8m12,4.14a19.18,19.18,0,0,0,4.33-6.12,17.75,17.75,0,0,1,3.94,2,14.16,14.16,0,0,1-8.27,4.14"/><path class="cls-1" d="M15.93,31.86h-.55A15.82,15.82,0,0,1,4.1,26.59l-.17-.2A15.89,15.89,0,0,1,4.28,5.08L4.37,5a15.83,15.83,0,0,1,11-5h1.1A15.86,15.86,0,0,1,27.53,5l.21.22A15.91,15.91,0,0,1,28,26.37l-.05.15-.17.09a16,16,0,0,1-11.26,5.24h-.55ZM7,25.92a13.54,13.54,0,0,0,4.86,2.77,20.5,20.5,0,0,1-2.53-3.92A17.37,17.37,0,0,0,7,25.92Zm15.45-1.15A20.45,20.45,0,0,1,20,28.69a13.58,13.58,0,0,0,4.85-2.77A17.37,17.37,0,0,0,22.49,24.77Zm-5.28-1.23V28A17.37,17.37,0,0,0,20,24,17.8,17.8,0,0,0,17.21,23.54ZM11.83,24a17.41,17.41,0,0,0,2.83,4V23.54A17.74,17.74,0,0,0,11.83,24Zm11.63-1.57A20.05,20.05,0,0,1,26.59,24a13.14,13.14,0,0,0,2.66-6.8H24.49A20.41,20.41,0,0,1,23.46,22.41ZM2.61,17.21A13.14,13.14,0,0,0,5.27,24a21,21,0,0,1,3.13-1.6,20.06,20.06,0,0,1-1-5.2ZM17.21,21a19.62,19.62,0,0,1,3.83.62,17,17,0,0,0,.89-4.4H17.21ZM9.93,17.21a17.21,17.21,0,0,0,.89,4.39A20.49,20.49,0,0,1,14.66,21V17.21Zm14.55-2.55h4.77A13.31,13.31,0,0,0,26.31,7.5,19.15,19.15,0,0,1,23.3,9,19.75,19.75,0,0,1,24.48,14.66Zm-7.27,0h4.72a17.58,17.58,0,0,0-1.05-4.88,20.61,20.61,0,0,1-3.67.57Zm-7.28,0h4.73V10.35A20.33,20.33,0,0,1,11,9.78,17.24,17.24,0,0,0,9.93,14.66Zm-7.32,0H7.38A19.9,19.9,0,0,1,8.56,9a20.05,20.05,0,0,1-3-1.49A13.38,13.38,0,0,0,2.61,14.66Zm9.47-7.24a18.66,18.66,0,0,0,2.58.38V3.89A17.47,17.47,0,0,0,12.08,7.42Zm5.13-3.53V7.8a19.12,19.12,0,0,0,2.58-.38A17.86,17.86,0,0,0,17.21,3.89ZM7.4,5.63a18.18,18.18,0,0,0,2.19,1A19.73,19.73,0,0,1,11.9,3.17,13.2,13.2,0,0,0,7.4,5.63ZM20,3.17a19.78,19.78,0,0,1,2.32,3.49,17.36,17.36,0,0,0,2.18-1A13.2,13.2,0,0,0,20,3.17Z"/></g></g></svg>