<svg xmlns="http://www.w3.org/2000/svg" viewBox="0 0 40.23 32.7"><defs><style>.cls-1{fill:#fff;}</style></defs><g id="Capa_2" data-name="Capa 2"><g id="Capa_1-2" data-name="Capa 1"><path class="cls-1" d="M40.23,3.87a16.4,16.4,0,0,1-4.74,1.3A8.26,8.26,0,0,0,39.12.6a16.39,16.39,0,0,1-5.24,2A8.26,8.26,0,0,0,19.6,8.25a7.74,7.74,0,0,0,.22,1.88,23.39,23.39,0,0,1-17-8.62,8.26,8.26,0,0,0,2.55,11,8.13,8.13,0,0,1-3.73-1v.1a8.26,8.26,0,0,0,6.62,8.1A8.69,8.69,0,0,1,6.06,20a7.91,7.91,0,0,1-1.55-.15,8.26,8.26,0,0,0,7.71,5.73A16.5,16.5,0,0,1,2,29.1,16,16,0,0,1,0,29,23.37,23.37,0,0,0,12.65,32.7c15.18,0,23.49-12.58,23.49-23.49,0-.35,0-.71,0-1.07a16.4,16.4,0,0,0,4.12-4.27"/></g></g></svg>