<svg xmlns="http://www.w3.org/2000/svg" viewBox="0 0 41.39 41.4"><defs><style>.cls-1{fill:#bce269;}</style></defs><g id="Capa_2" data-name="Capa 2"><g id="Capa_1-2" data-name="Capa 1"><path class="cls-1" d="M13,13.7,3.44,4.14,7.14.43a1.49,1.49,0,0,1,2.07,0l7.44,7.46a1.48,1.48,0,0,1,0,2.08L13.5,13.1a3.19,3.19,0,0,0-.5.6m7.87,15.58c-1.57-1.35-3.07-2.78-4.53-4.23s-2.89-3-4.23-4.54a4.69,4.69,0,0,1-.74-4.67L1.56,6c-2.29,2.35-2,8.17.5,13.28A37,37,0,0,0,6,25.42a53.87,53.87,0,0,0,4.68,5.34A54.05,54.05,0,0,0,16,35.45a36,36,0,0,0,6.11,3.89c5.11,2.51,10.93,2.79,13.28.5L25.55,30a4.71,4.71,0,0,1-4.68-.75M41,32.18l-7.45-7.45a1.51,1.51,0,0,0-2.09,0L29.8,26.37l-1.52,1.51a2.85,2.85,0,0,1-.6.5L37.24,38c1.23-1.25,2.47-2.47,3.7-3.71a1.45,1.45,0,0,0,0-2.07"/></g></g></svg>