<svg xmlns="http://www.w3.org/2000/svg" viewBox="0 0 27.02 30.02"><defs><style>.cls-1{fill:#594a42;}</style></defs><g id="Capa_2" data-name="Capa 2"><g id="Capa_1-2" data-name="Capa 1"><path class="cls-1" d="M17.31,16.32a8.25,8.25,0,1,0-7.62,0A12.78,12.78,0,0,0,.75,28.51a.76.76,0,0,0,1.52,0,11.24,11.24,0,1,1,22.48,0,.76.76,0,0,0,1.52,0,12.77,12.77,0,0,0-9-12.19M6.78,9a6.73,6.73,0,1,1,6.72,6.72A6.72,6.72,0,0,1,6.78,9"/><path class="cls-1" d="M25.51,30A1.52,1.52,0,0,1,24,28.51a10.49,10.49,0,1,0-21,0,1.51,1.51,0,0,1-3,0A13.46,13.46,0,0,1,8,16.15a8.9,8.9,0,0,1-2.51-3,9,9,0,1,1,13.46,3,13.47,13.47,0,0,1,8,12.37A1.52,1.52,0,0,1,25.51,30ZM13.49,1.5A7.39,7.39,0,0,0,10,2.35a7.5,7.5,0,0,0,0,13.3l1.61.84L9.92,17A12,12,0,0,0,1.5,28.51a12,12,0,0,1,24,0A11.94,11.94,0,0,0,17.09,17l-1.73-.54L17,15.65A7.5,7.5,0,0,0,13.49,1.5Zm0,15A7.48,7.48,0,0,1,6,9H6a7.48,7.48,0,1,1,7.47,7.47ZM7.53,9a6,6,0,1,0,6-6,6,6,0,0,0-6,6Z"/></g></g></svg>