<svg xmlns="http://www.w3.org/2000/svg" viewBox="0 0 29.06 31.55"><defs><style>.cls-1{fill:#594a42;}</style></defs><g id="Capa_2" data-name="Capa 2"><g id="Capa_1-2" data-name="Capa 1"><path class="cls-1" d="M8.6,21.42H25a4.12,4.12,0,0,0,4.11-4.12V5.74l-3.14,0V17.3a1,1,0,0,1-1,1H8.6a1,1,0,0,1-1-1V3.67l0-.09-.09-.22s0,0,0-.07l-.08-.16A.57.57,0,0,0,7.39,3L7,2.58H7L2.18.51A1.57,1.57,0,0,0,1,3.41L4.49,4.9V22.44a4.12,4.12,0,0,0,2.64,3.84,4.07,4.07,0,1,0,8,1.2,4.73,4.73,0,0,0-.1-.93h5.19a4.14,4.14,0,0,0-.1.93,4.07,4.07,0,1,0,4.07-4.07H8.6a1,1,0,0,1-1-1V21.31A4.42,4.42,0,0,0,8.6,21.42Zm-2-18.17Zm17.53,23.3a.93.93,0,0,1,0,1.85.93.93,0,1,1,0-1.85ZM11,26.55a.93.93,0,1,1,0,1.85.93.93,0,0,1,0-1.85Z"/><polygon class="cls-1" points="15.55 2.83 15.55 15.97 18.31 15.97 18.31 0 16.36 0 12.1 1.36 12.69 3.62 15.55 2.83"/></g></g></svg>